<?xml version="1.0" encoding="UTF-8" standalone="no"?>
<!-- Created with Inkscape (http://www.inkscape.org/) -->
<svg
   xmlns:dc="http://purl.org/dc/elements/1.1/"
   xmlns:cc="http://web.resource.org/cc/"
   xmlns:rdf="http://www.w3.org/1999/02/22-rdf-syntax-ns#"
   xmlns:svg="http://www.w3.org/2000/svg"
   xmlns="http://www.w3.org/2000/svg"
   xmlns:sodipodi="http://sodipodi.sourceforge.net/DTD/sodipodi-0.dtd"
   xmlns:inkscape="http://www.inkscape.org/namespaces/inkscape"
   id="svg2"
   sodipodi:version="0.32"
   inkscape:version="0.45"
   width="1052.3622"
   height="744.09448"
   version="1.0"
   sodipodi:docbase="/disks/beejhome/home/beej/guide/bgipc/images"
   sodipodi:docname="pipe1.svg"
   inkscape:output_extension="org.inkscape.output.svg.inkscape"
   inkscape:export-filename="/disks/beejhome/home/beej/guide/bgipc/images/pipe1-300-4.149.png"
   inkscape:export-xdpi="300.21973"
   inkscape:export-ydpi="300.21973"
   sodipodi:modified="TRUE">
  <metadata
     id="metadata7">
    <rdf:RDF>
      <cc:Work
         rdf:about="">
        <dc:format>image/svg+xml</dc:format>
        <dc:type
           rdf:resource="http://purl.org/dc/dcmitype/StillImage" />
      </cc:Work>
    </rdf:RDF>
  </metadata>
  <defs
     id="defs5">
    <marker
       inkscape:stockid="Arrow2Mstart"
       orient="auto"
       refY="0"
       refX="0"
       id="Arrow2Mstart"
       style="overflow:visible">
      <path
         id="path4295"
         style="font-size:12px;fill-rule:evenodd;stroke-width:0.625;stroke-linejoin:round"
         d="M 8.7185878,4.0337352 L -2.2072895,0.016013256 L 8.7185884,-4.0017078 C 6.97309,-1.6296469 6.9831476,1.6157441 8.7185878,4.0337352 z "
         transform="scale(0.6,0.6)" />
    </marker>
    <marker
       inkscape:stockid="Arrow2Mend"
       orient="auto"
       refY="0"
       refX="0"
       id="Arrow2Mend"
       style="overflow:visible">
      <path
         id="path4292"
         style="font-size:12px;fill-rule:evenodd;stroke-width:0.625;stroke-linejoin:round"
         d="M 8.7185878,4.0337352 L -2.2072895,0.016013256 L 8.7185884,-4.0017078 C 6.97309,-1.6296469 6.9831476,1.6157441 8.7185878,4.0337352 z "
         transform="scale(-0.6,-0.6)" />
    </marker>
    <marker
       inkscape:stockid="Arrow2Lend"
       orient="auto"
       refY="0"
       refX="0"
       id="Arrow2Lend"
       style="overflow:visible">
      <path
         id="path4298"
         style="font-size:12px;fill-rule:evenodd;stroke-width:0.625;stroke-linejoin:round"
         d="M 8.7185878,4.0337352 L -2.2072895,0.016013256 L 8.7185884,-4.0017078 C 6.97309,-1.6296469 6.9831476,1.6157441 8.7185878,4.0337352 z "
         transform="matrix(-1.1,0,0,-1.1,-1.1,0)" />
    </marker>
    <marker
       inkscape:stockid="TriangleOutL"
       orient="auto"
       refY="0"
       refX="0"
       id="TriangleOutL"
       style="overflow:visible">
      <path
         id="path4221"
         d="M 5.77,0 L -2.88,5 L -2.88,-5 L 5.77,0 z "
         style="fill-rule:evenodd;stroke:#000000;stroke-width:1pt;marker-start:none"
         transform="scale(0.8,0.8)" />
    </marker>
  </defs>
  <sodipodi:namedview
     inkscape:window-height="776"
     inkscape:window-width="907"
     inkscape:pageshadow="2"
     inkscape:pageopacity="0.0"
     guidetolerance="10.0"
     gridtolerance="10.0"
     objecttolerance="10.0"
     borderopacity="1.0"
     bordercolor="#666666"
     pagecolor="#ffffff"
     id="base"
     inkscape:zoom="1.314517"
     inkscape:cx="343.14416"
     inkscape:cy="514.05696"
     inkscape:window-x="45"
     inkscape:window-y="32"
     inkscape:current-layer="svg2"
     width="1052.3622px"
     height="744.09449px" />
  <path
     style="opacity:1;color:#000000;fill:none;fill-opacity:0.75;fill-rule:evenodd;stroke:#000000;stroke-width:2.48031497;stroke-linecap:round;stroke-linejoin:miter;marker:none;marker-start:url(#Arrow2Mstart);marker-mid:none;marker-end:none;stroke-miterlimit:4;stroke-dasharray:none;stroke-dashoffset:0;stroke-opacity:1;visibility:visible;display:inline;overflow:visible"
     d="M 448.48254,209.16645 C 447.04808,202.89071 447.58601,195.35981 444.17917,190.33921 C 440.77234,185.31861 437.63446,181.19454 428.04153,179.04286 C 418.4486,176.89117 400.42823,177.96702 386.62158,177.4291"
     id="path4126"
     sodipodi:nodetypes="czzz" />
  <rect
     style="opacity:1;fill:#ffffff;fill-opacity:1;fill-rule:evenodd;stroke:#000000;stroke-width:2.05299997;stroke-linecap:round;stroke-linejoin:round;stroke-miterlimit:4;stroke-dasharray:none;stroke-dashoffset:0;stroke-opacity:1"
     id="rect3132"
     width="177.2514"
     height="31.190163"
     x="208.44157"
     y="162.28828"
     rx="0.99999988"
     ry="0.78931755" />
  <text
     xml:space="preserve"
     style="font-size:23.28359222px;font-style:oblique;font-variant:normal;font-weight:normal;font-stretch:normal;text-align:start;line-height:-165.99999666%;writing-mode:lr-tb;text-anchor:start;fill:#000000;fill-opacity:1;stroke:none;stroke-width:1px;stroke-linecap:butt;stroke-linejoin:miter;stroke-opacity:1;font-family:Bitstream Vera Sans"
     x="269.42709"
     y="183.80919"
     id="text4103"
     sodipodi:linespacing="-166%"><tspan
       sodipodi:role="line"
       id="tspan4105"
       x="269.42709"
       y="183.80919">Pipe</tspan></text>
  <text
     xml:space="preserve"
     style="font-size:16.00386429px;font-style:normal;font-variant:normal;font-weight:normal;font-stretch:normal;text-align:start;line-height:-165.99999666%;writing-mode:lr-tb;text-anchor:start;fill:#000000;fill-opacity:1;stroke:none;stroke-width:1px;stroke-linecap:butt;stroke-linejoin:miter;stroke-opacity:1;font-family:Courier New"
     x="113.67764"
     y="223.38303"
     id="text4107"
     sodipodi:linespacing="-166%"><tspan
       sodipodi:role="line"
       id="tspan4109"
       x="113.67764"
       y="223.38303">write()</tspan></text>
  <text
     xml:space="preserve"
     style="font-size:16.44713211px;font-style:normal;font-variant:normal;font-weight:normal;font-stretch:normal;text-align:start;line-height:-165.99999666%;writing-mode:lr-tb;text-anchor:start;fill:#000000;fill-opacity:1;stroke:none;stroke-width:1px;stroke-linecap:butt;stroke-linejoin:miter;stroke-opacity:1;font-family:Courier New"
     x="433.06247"
     y="222.91425"
     id="text4111"
     sodipodi:linespacing="-166%"><tspan
       sodipodi:role="line"
       id="tspan4113"
       x="433.06247"
       y="222.91425">read()</tspan></text>
  <text
     xml:space="preserve"
     style="font-size:10.55708599px;font-style:normal;font-variant:normal;font-weight:bold;font-stretch:normal;text-align:start;line-height:-165.99999666%;writing-mode:lr-tb;text-anchor:start;fill:#000000;fill-opacity:1;stroke:none;stroke-width:1px;stroke-linecap:butt;stroke-linejoin:miter;stroke-opacity:1;font-family:Courier New"
     x="175.66769"
     y="169.95853"
     id="text4115"
     sodipodi:linespacing="-166%"><tspan
       sodipodi:role="line"
       id="tspan4117"
       x="175.66769"
       y="169.95853">fd[1]</tspan></text>
  <path
     style="font-size:11.91877747px;font-style:normal;font-variant:normal;font-weight:bold;font-stretch:normal;text-align:start;line-height:-165.99999666%;writing-mode:lr-tb;text-anchor:start;fill:#000000;fill-opacity:1;stroke:none;stroke-width:1px;stroke-linecap:butt;stroke-linejoin:miter;stroke-opacity:1;font-family:Courier New"
     d="M 408.71215,163.15 C 407.97399,163.15001 407.42012,163.48616 407.0253,164.11787 C 406.63048,164.74616 406.41693,165.39804 406.41693,166.08125 L 406.41693,167.24269 C 406.41693,167.80575 406.54315,168.3419 406.80407,168.84659 C 407.06843,169.34784 407.34184,169.68093 407.63367,169.86976 C 407.92893,170.05515 408.31408,170.14629 408.7398,170.14629 C 409.47795,170.14629 410.03183,169.83437 410.42666,169.20608 C 410.82491,168.57779 411.03503,167.92935 411.03503,167.24269 L 411.03503,166.08125 C 411.03502,165.51477 410.88801,164.97862 410.62023,164.47736 C 410.35586,163.97268 410.0859,163.63959 409.79063,163.45419 C 409.4988,163.2688 409.13444,163.15001 408.71215,163.15 z M 390.70985,163.31592 C 390.05409,163.31593 389.53567,163.48048 389.18891,163.78603 C 388.84559,164.08816 388.69115,164.45976 388.69116,164.91982 L 388.69116,165.30696 L 388.1934,165.30696 C 387.93934,165.30697 387.7502,165.37332 387.64033,165.47288 C 387.5339,165.56902 387.47442,165.67788 387.47442,165.83237 C 387.47442,165.99031 387.5339,166.11996 387.64033,166.21952 C 387.7502,166.31566 387.93935,166.38544 388.1934,166.38544 L 388.69116,166.38544 L 388.69116,168.92955 L 388.05513,168.92955 C 387.80107,168.92955 387.61193,168.9959 387.50207,169.09546 C 387.39563,169.1916 387.36381,169.30046 387.3638,169.45496 C 387.3638,169.61289 387.39564,169.74254 387.50207,169.8421 C 387.61193,169.93824 387.80108,170.00802 388.05513,170.00802 L 391.23526,170.00802 C 391.48932,170.00802 391.6819,169.93824 391.78833,169.8421 C 391.89819,169.74254 391.95424,169.63711 391.95425,169.48261 C 391.95424,169.32468 391.8982,169.1916 391.78833,169.09546 C 391.68189,168.9959 391.48932,168.92955 391.23526,168.92955 L 389.74198,168.92955 L 389.74198,166.38544 L 391.37352,166.38544 C 391.62759,166.38544 391.79251,166.31566 391.89894,166.21952 C 392.0088,166.11996 392.06485,166.01453 392.06487,165.86003 C 392.06486,165.7021 392.00881,165.56902 391.89894,165.47288 C 391.7925,165.37332 391.62758,165.30697 391.37352,165.30696 L 389.74198,165.30696 L 389.74198,164.91982 C 389.74198,164.76532 389.80509,164.63567 389.93556,164.53267 C 390.06945,164.42624 390.30434,164.36676 390.65454,164.36675 C 390.991,164.36676 391.37996,164.41919 391.81598,164.50502 C 391.94645,164.52905 392.05494,164.53267 392.12017,164.53267 C 392.26093,164.53267 392.38351,164.49397 392.47966,164.3944 C 392.57579,164.29141 392.61793,164.14097 392.61793,163.9796 C 392.61792,163.82855 392.56186,163.71625 392.452,163.62011 C 392.34557,163.52399 392.08987,163.45039 391.70537,163.39888 C 391.32428,163.34396 391.00169,163.31593 390.70985,163.31592 z M 397.26368,163.31592 C 397.00961,163.31593 396.82047,163.35463 396.71062,163.45419 C 396.60418,163.55033 396.5447,163.68341 396.5447,163.84134 C 396.5447,163.99584 396.60418,164.12892 396.71062,164.22848 C 396.82048,164.32462 397.00961,164.36676 397.26368,164.36675 L 397.4296,164.36675 L 397.4296,165.69411 C 397.1721,165.52588 396.91966,165.38937 396.65531,165.30696 C 396.39094,165.22113 396.12802,165.1687 395.85336,165.1687 C 395.12207,165.1687 394.50873,165.4383 394.00059,165.94299 C 393.49247,166.44768 393.22629,167.05399 393.2263,167.76811 C 393.2263,168.45133 393.46121,169.02255 393.94528,169.48261 C 394.42938,169.93924 395.08793,170.17394 395.88102,170.17394 C 396.16254,170.17394 396.42202,170.13543 396.68297,170.06333 C 396.94732,169.99123 397.18926,169.87226 397.4296,169.73149 L 397.4296,170.00802 L 398.674,170.00802 C 398.92806,170.00802 399.12063,169.93824 399.22707,169.8421 C 399.33693,169.74254 399.39297,169.63711 399.39298,169.48261 C 399.39298,169.32468 399.33693,169.1916 399.22707,169.09546 C 399.1172,168.9959 398.92461,168.92955 398.674,168.92955 L 398.50808,168.92955 L 398.50808,163.31592 L 397.26368,163.31592 z M 401.85414,163.34358 L 401.85414,171.63957 L 403.54098,171.63957 C 403.79504,171.63957 403.98763,171.60087 404.09405,171.5013 C 404.20391,171.40517 404.25996,171.27209 404.25997,171.11416 C 404.25996,170.95623 404.20392,170.82314 404.09405,170.72701 C 403.98761,170.63088 403.79504,170.58874 403.54098,170.58874 L 402.90495,170.58874 L 402.90495,164.3944 L 403.54098,164.3944 C 403.79504,164.39441 403.98761,164.35227 404.09405,164.25614 C 404.20391,164.15658 404.25997,164.02349 404.25997,163.86899 C 404.25996,163.71107 404.2039,163.57798 404.09405,163.48184 C 403.98761,163.38229 403.79505,163.34358 403.54098,163.34358 L 401.85414,163.34358 z M 413.88332,163.34358 C 413.62926,163.34358 413.44013,163.38229 413.33025,163.48184 C 413.22382,163.57798 413.19198,163.71107 413.19199,163.86899 C 413.19199,164.02349 413.22384,164.15658 413.33025,164.25614 C 413.44012,164.35227 413.62925,164.39441 413.88332,164.3944 L 414.51935,164.3944 L 414.51935,170.58874 L 413.88332,170.58874 C 413.62926,170.58874 413.46778,170.63088 413.3579,170.72701 C 413.25147,170.82657 413.192,170.95966 413.19199,171.11416 C 413.19199,171.27209 413.25148,171.40517 413.3579,171.5013 C 413.46777,171.60087 413.62928,171.63957 413.88332,171.63957 L 415.57017,171.63957 L 415.57017,163.34358 L 413.88332,163.34358 z M 408.71215,164.22848 C 409.04175,164.22849 409.30447,164.32343 409.48645,164.56032 C 409.80574,164.98949 409.95655,165.5079 409.95655,166.08125 L 409.95655,167.24269 C 409.95655,167.82635 409.81965,168.31349 409.5141,168.70832 C 409.31153,168.96925 409.05566,169.09547 408.7398,169.09546 C 408.40678,169.09547 408.14402,168.97287 407.96552,168.73597 C 407.64278,168.31025 407.46774,167.81948 407.46775,167.24269 L 407.46775,166.08125 C 407.46775,165.4976 407.6323,165.01046 407.93786,164.61563 C 408.14042,164.35471 408.39284,164.22849 408.71215,164.22848 z M 395.85336,166.24717 C 396.29625,166.24718 396.68159,166.3875 396.98715,166.68963 C 397.29271,166.99176 397.42958,167.35974 397.4296,167.79576 C 397.42959,168.17342 397.29288,168.48535 397.0148,168.73597 C 396.7367,168.98317 396.35119,169.12312 395.85336,169.12312 C 395.3521,169.12312 394.96659,168.98317 394.69193,168.73597 C 394.41726,168.48535 394.27713,168.15607 394.27713,167.76811 C 394.27713,167.34238 394.44168,166.99176 394.74723,166.68963 C 395.05279,166.3875 395.41392,166.24718 395.85336,166.24717 z "
     id="text4119" />
  <path
     style="opacity:1;color:#000000;fill:none;fill-opacity:0.75;fill-rule:evenodd;stroke:#000000;stroke-width:2.48000002;stroke-linecap:round;stroke-linejoin:miter;marker:none;marker-start:none;marker-mid:none;marker-end:url(#Arrow2Mend);stroke-miterlimit:4;stroke-dasharray:none;stroke-dashoffset:0;stroke-opacity:1;visibility:visible;display:inline;overflow:visible"
     d="M 144.28801,209.32993 C 145.72247,203.05418 145.18454,195.52328 148.59138,190.50268 C 151.99821,185.48208 155.13609,181.35802 164.72902,179.20633 C 174.32195,177.05465 192.34232,178.13049 206.14896,177.59257"
     id="path4124"
     sodipodi:nodetypes="czzz" />
</svg>
